<?xml version="1.0" encoding="UTF-8"?>
<!DOCTYPE svg PUBLIC "-//W3C//DTD SVG 1.1//EN" "http://www.w3.org/Graphics/SVG/1.1/DTD/svg11.dtd">
<!-- Creator: CorelDRAW -->
<svg xmlns="http://www.w3.org/2000/svg" xml:space="preserve" width="173px" height="221px" version="1.1" style="shape-rendering:geometricPrecision; text-rendering:geometricPrecision; image-rendering:optimizeQuality; fill-rule:evenodd; clip-rule:evenodd"
viewBox="0 0 0.5 0.63"
 xmlns:xlink="http://www.w3.org/1999/xlink"
 xmlns:xodm="http://www.corel.com/coreldraw/odm/2003">
 <defs>
  <style type="text/css">
   <![CDATA[
    .fil0 {fill:white;fill-rule:nonzero}
   ]]>
  </style>
 </defs>
 <g id="Слой_x0020_1">
  <metadata id="CorelCorpID_0Corel-Layer"/>
  <g id="_2267878374848">
   <g data-name="Layer 2">
    <path class="fil0" d="M0.04 0.63c-0.02,0 -0.03,-0.01 -0.03,-0.03l-0.01 -0.52c0,0 0,0 0,0 0,-0.04 0.03,-0.08 0.08,-0.08l0.33 0c0.05,0 0.08,0.04 0.08,0.08 0,0 0,0 0,0l0.01 0.51c0,0 0,0.01 0,0.01 0,0.01 -0.01,0.02 -0.02,0.03 -0.01,0 -0.01,0 -0.02,0 -0.01,0 -0.01,0 -0.02,0l-0.2 -0.12 -0.18 0.12c-0.01,0 -0.01,0 -0.02,0l0 0zm0.2 -0.19c0.01,0 0.01,0 0.02,0l0.16 0.09 0 -0.45c0,-0.01 0,-0.01 -0.01,-0.01l-0.33 0c-0.01,0 -0.01,0.01 -0.01,0.01l0 0.46 0.15 -0.1c0.01,0 0.02,0 0.02,0l0 0z" data-name="bookmark"/>
   </g>
  </g>
 </g>
</svg>
