<?xml version="1.0" encoding="UTF-8"?>
<!DOCTYPE svg PUBLIC "-//W3C//DTD SVG 1.1//EN" "http://www.w3.org/Graphics/SVG/1.1/DTD/svg11.dtd">
<!-- Creator: CorelDRAW -->
<svg xmlns="http://www.w3.org/2000/svg" xml:space="preserve" width="157px" height="175px" version="1.1" style="shape-rendering:geometricPrecision; text-rendering:geometricPrecision; image-rendering:optimizeQuality; fill-rule:evenodd; clip-rule:evenodd"
viewBox="0 0 0.3 0.34"
 xmlns:xlink="http://www.w3.org/1999/xlink"
 xmlns:xodm="http://www.corel.com/coreldraw/odm/2003">
 <defs>
  <style type="text/css">
   <![CDATA[
    .fil0 {fill:#FEFEFE}
   ]]>
  </style>
 </defs>
 <g id="Слой_x0020_1">
  <metadata id="CorelCorpID_0Corel-Layer"/>
  <path class="fil0" d="M0.3 0.04c0,0 -0.01,0 -0.01,0 0,0 0,0 0,0l-0.12 0 -0.01 0 -0.12 0 0 -0.03c-0.01,-0.01 -0.01,-0.01 -0.01,-0.01l-0.03 0 0 0.02 0.02 0 0.04 0.17c0.01,0 0.01,0 0.01,0 0,0 0,0 0,0l0.19 0c0.01,0 0.02,0.02 0.02,0.03 0,0.01 -0.01,0.03 -0.02,0.03l-0.23 0c-0.01,0 -0.01,0 -0.01,0.01 0,0 0,0 0.01,0l0.03 0 0 0.02c-0.01,0 -0.01,0.01 -0.01,0.01 0,0.03 0.02,0.05 0.05,0.05 0.02,0 0.04,-0.02 0.04,-0.05 0,0 0,-0.01 0,-0.01l-0.01 -0.02 0.07 0 0 0.02c-0.01,0 -0.01,0.01 -0.01,0.01 0,0.03 0.02,0.04 0.05,0.04 0.02,0 0.04,-0.01 0.04,-0.04 0,0 0,0 0,0 0,-0.01 0,-0.01 0,-0.02l-0.01 -0.01 0.01 0c0.01,-0.01 0.02,-0.02 0.02,-0.04 0,-0.02 -0.01,-0.03 -0.03,-0.04l-0.01 0 0.04 -0.13c0,0 0,-0.01 0,-0.01 0,0 0,0 0,0zm-0.23 0.08l0.09 0 0 -0.03 -0.1 0 0.01 0.03zm0.1 0l0.09 0 0.01 -0.03 -0.1 0 0 0.03zm0.09 0.02l-0.09 0 0 0.04 0.08 0 0.01 -0.04zm-0.1 0l-0.09 0 0.01 0.04 0.08 0 0 -0.04zm-0.11 -0.06l0.11 0 0 -0.03 -0.11 0 0 0.03zm0.12 0l0.1 0 0.01 -0.03 -0.11 0 0 0.03zm-0.07 0.24c-0.02,0 -0.03,-0.02 -0.03,-0.03 0,-0.01 0.01,-0.03 0.03,-0.03 0.01,0 0.02,0.02 0.02,0.03 0,0.01 -0.01,0.03 -0.02,0.03zm0.14 0c-0.02,0 -0.03,-0.02 -0.03,-0.03 0,-0.01 0.01,-0.03 0.03,-0.03 0.01,0 0.02,0.02 0.02,0.03 0,0.01 -0.01,0.03 -0.02,0.03z"/>
 </g>
</svg>
