<?xml version="1.0" encoding="UTF-8"?>
<!DOCTYPE svg PUBLIC "-//W3C//DTD SVG 1.1//EN" "http://www.w3.org/Graphics/SVG/1.1/DTD/svg11.dtd">
<!-- Creator: CorelDRAW -->
<svg xmlns="http://www.w3.org/2000/svg" xml:space="preserve" width="304px" height="243px" version="1.1" style="shape-rendering:geometricPrecision; text-rendering:geometricPrecision; image-rendering:optimizeQuality; fill-rule:evenodd; clip-rule:evenodd"
viewBox="0 0 1.5 1.2"
 xmlns:xlink="http://www.w3.org/1999/xlink"
 xmlns:xodm="http://www.corel.com/coreldraw/odm/2003">
 <defs>
  <style type="text/css">
   <![CDATA[
    .fil0 {fill:white;fill-rule:nonzero}
   ]]>
  </style>
 </defs>
 <g id="Слой_x0020_1">
  <metadata id="CorelCorpID_0Corel-Layer"/>
  <path class="fil0" d="M1.5 0.57c-0.15,-0.35 -0.44,-0.57 -0.75,-0.57 -0.31,0 -0.59,0.22 -0.74,0.57 -0.01,0.01 -0.01,0.02 -0.01,0.03 0,0.01 0,0.02 0.01,0.03 0.15,0.35 0.43,0.57 0.74,0.57 0.31,0 0.6,-0.22 0.75,-0.57 0,-0.01 0,-0.02 0,-0.03 0,-0.01 0,-0.02 0,-0.03zm-0.75 0.48c-0.24,0 -0.46,-0.17 -0.59,-0.45 0.13,-0.28 0.35,-0.45 0.59,-0.45 0.24,0 0.47,0.17 0.6,0.45 -0.13,0.28 -0.36,0.45 -0.6,0.45zm0 -0.75c-0.16,0 -0.3,0.14 -0.3,0.3 0,0.17 0.14,0.3 0.3,0.3 0.17,0 0.3,-0.13 0.3,-0.3 0,-0.16 -0.13,-0.3 -0.3,-0.3zm0 0.45c-0.08,0 -0.15,-0.07 -0.15,-0.15 0,-0.08 0.07,-0.15 0.15,-0.15 0.08,0 0.15,0.07 0.15,0.15 0,0.08 -0.07,0.15 -0.15,0.15l0 0z"/>
 </g>
</svg>
