<?xml version="1.0" encoding="UTF-8"?>
<!DOCTYPE svg PUBLIC "-//W3C//DTD SVG 1.1//EN" "http://www.w3.org/Graphics/SVG/1.1/DTD/svg11.dtd">
<!-- Creator: CorelDRAW -->
<svg xmlns="http://www.w3.org/2000/svg" xml:space="preserve" width="337px" height="337px" version="1.1" style="shape-rendering:geometricPrecision; text-rendering:geometricPrecision; image-rendering:optimizeQuality; fill-rule:evenodd; clip-rule:evenodd"
viewBox="0 0 1.61 1.61"
 xmlns:xlink="http://www.w3.org/1999/xlink"
 xmlns:xodm="http://www.corel.com/coreldraw/odm/2003">
 <defs>
  <style type="text/css">
   <![CDATA[
    .fil0 {fill:white}
   ]]>
  </style>
 </defs>
 <g id="Слой_x0020_1">
  <metadata id="CorelCorpID_0Corel-Layer"/>
  <path class="fil0" d="M0.8 0c0.45,0 0.81,0.36 0.81,0.8 0,0.45 -0.36,0.81 -0.81,0.81 -0.44,0 -0.8,-0.36 -0.8,-0.81 0,-0.44 0.36,-0.8 0.8,-0.8zm0.44 1.11l-0.21 -0.2c0.04,-0.05 0.06,-0.12 0.06,-0.19 0,-0.21 -0.17,-0.37 -0.37,-0.37 -0.21,0 -0.37,0.16 -0.37,0.37 0,0.2 0.16,0.37 0.37,0.37 0.07,0 0.14,-0.02 0.19,-0.06l0.2 0.21c0.02,0.01 0.04,0.02 0.06,0.02 0.05,0 0.09,-0.04 0.09,-0.09 0,-0.02 -0.01,-0.04 -0.02,-0.06l0 0zm-0.52 -0.13c-0.14,0 -0.26,-0.12 -0.26,-0.26 0,-0.14 0.12,-0.26 0.26,-0.26 0.14,0 0.26,0.12 0.26,0.26 0,0.14 -0.12,0.26 -0.26,0.26zm0.08 -0.9c0.4,0 0.73,0.32 0.73,0.72 0,0.4 -0.33,0.73 -0.73,0.73 -0.4,0 -0.72,-0.33 -0.72,-0.73 0,-0.4 0.32,-0.72 0.72,-0.72z"/>
 </g>
</svg>
